<mxfile host="app.diagrams.net" modified="2023-03-28T06:10:25.820Z" agent="Mozilla/5.0 (Windows NT 10.0; Win64; x64) AppleWebKit/537.36 (KHTML, like Gecko) Chrome/98.0.4758.102 Safari/537.36" etag="iS-crXblec853toAFiui" version="21.1.1" type="github">
  <diagram name="Page-1" id="c7488fd3-1785-93aa-aadb-54a6760d102a">
    <mxGraphModel dx="1050" dy="492" grid="1" gridSize="10" guides="1" tooltips="1" connect="1" arrows="1" fold="1" page="1" pageScale="1" pageWidth="1100" pageHeight="850" background="none" math="0" shadow="0">
      <root>
        <mxCell id="0" />
        <mxCell id="1" parent="0" />
        <mxCell id="Rc_r8LwS0iZ7VTR58sMa-1" value="" style="shape=table;startSize=0;container=1;collapsible=0;childLayout=tableLayout;" vertex="1" parent="1">
          <mxGeometry x="310" y="60" width="456" height="233" as="geometry" />
        </mxCell>
        <mxCell id="Rc_r8LwS0iZ7VTR58sMa-2" value="" style="shape=tableRow;horizontal=0;startSize=0;swimlaneHead=0;swimlaneBody=0;strokeColor=inherit;top=0;left=0;bottom=0;right=0;collapsible=0;dropTarget=0;fillColor=none;points=[[0,0.5],[1,0.5]];portConstraint=eastwest;" vertex="1" parent="Rc_r8LwS0iZ7VTR58sMa-1">
          <mxGeometry width="456" height="53" as="geometry" />
        </mxCell>
        <mxCell id="Rc_r8LwS0iZ7VTR58sMa-3" value="" style="shape=partialRectangle;html=1;whiteSpace=wrap;connectable=0;strokeColor=inherit;overflow=hidden;fillColor=none;top=0;left=0;bottom=0;right=0;pointerEvents=1;" vertex="1" parent="Rc_r8LwS0iZ7VTR58sMa-2">
          <mxGeometry width="74" height="53" as="geometry">
            <mxRectangle width="74" height="53" as="alternateBounds" />
          </mxGeometry>
        </mxCell>
        <mxCell id="Rc_r8LwS0iZ7VTR58sMa-4" value="step 1" style="shape=partialRectangle;html=1;whiteSpace=wrap;connectable=0;strokeColor=inherit;overflow=hidden;fillColor=none;top=0;left=0;bottom=0;right=0;pointerEvents=1;" vertex="1" parent="Rc_r8LwS0iZ7VTR58sMa-2">
          <mxGeometry x="74" width="94" height="53" as="geometry">
            <mxRectangle width="94" height="53" as="alternateBounds" />
          </mxGeometry>
        </mxCell>
        <mxCell id="Rc_r8LwS0iZ7VTR58sMa-5" value="step 2" style="shape=partialRectangle;html=1;whiteSpace=wrap;connectable=0;strokeColor=inherit;overflow=hidden;fillColor=none;top=0;left=0;bottom=0;right=0;pointerEvents=1;" vertex="1" parent="Rc_r8LwS0iZ7VTR58sMa-2">
          <mxGeometry x="168" width="96" height="53" as="geometry">
            <mxRectangle width="96" height="53" as="alternateBounds" />
          </mxGeometry>
        </mxCell>
        <mxCell id="Rc_r8LwS0iZ7VTR58sMa-6" value="step 3" style="shape=partialRectangle;html=1;whiteSpace=wrap;connectable=0;strokeColor=inherit;overflow=hidden;fillColor=none;top=0;left=0;bottom=0;right=0;pointerEvents=1;" vertex="1" parent="Rc_r8LwS0iZ7VTR58sMa-2">
          <mxGeometry x="264" width="96" height="53" as="geometry">
            <mxRectangle width="96" height="53" as="alternateBounds" />
          </mxGeometry>
        </mxCell>
        <mxCell id="Rc_r8LwS0iZ7VTR58sMa-7" value="step 4" style="shape=partialRectangle;html=1;whiteSpace=wrap;connectable=0;strokeColor=inherit;overflow=hidden;fillColor=none;top=0;left=0;bottom=0;right=0;pointerEvents=1;" vertex="1" parent="Rc_r8LwS0iZ7VTR58sMa-2">
          <mxGeometry x="360" width="96" height="53" as="geometry">
            <mxRectangle width="96" height="53" as="alternateBounds" />
          </mxGeometry>
        </mxCell>
        <mxCell id="Rc_r8LwS0iZ7VTR58sMa-8" value="" style="shape=tableRow;horizontal=0;startSize=0;swimlaneHead=0;swimlaneBody=0;strokeColor=inherit;top=0;left=0;bottom=0;right=0;collapsible=0;dropTarget=0;fillColor=none;points=[[0,0.5],[1,0.5]];portConstraint=eastwest;" vertex="1" parent="Rc_r8LwS0iZ7VTR58sMa-1">
          <mxGeometry y="53" width="456" height="60" as="geometry" />
        </mxCell>
        <mxCell id="Rc_r8LwS0iZ7VTR58sMa-9" value="GPU" style="shape=partialRectangle;html=1;whiteSpace=wrap;connectable=0;strokeColor=inherit;overflow=hidden;fillColor=none;top=0;left=0;bottom=0;right=0;pointerEvents=1;" vertex="1" parent="Rc_r8LwS0iZ7VTR58sMa-8">
          <mxGeometry width="74" height="60" as="geometry">
            <mxRectangle width="74" height="60" as="alternateBounds" />
          </mxGeometry>
        </mxCell>
        <mxCell id="Rc_r8LwS0iZ7VTR58sMa-10" value="Img&lt;sup&gt;q&lt;/sup&gt; k&lt;br&gt;&amp;nbsp;↓&lt;br style=&quot;border-color: var(--border-color);&quot;&gt;Img&lt;sup&gt;q&lt;/sup&gt; k&#39;" style="shape=partialRectangle;html=1;whiteSpace=wrap;connectable=0;strokeColor=inherit;overflow=hidden;fillColor=none;top=0;left=0;bottom=0;right=0;pointerEvents=1;" vertex="1" parent="Rc_r8LwS0iZ7VTR58sMa-8">
          <mxGeometry x="74" width="94" height="60" as="geometry">
            <mxRectangle width="94" height="60" as="alternateBounds" />
          </mxGeometry>
        </mxCell>
        <mxCell id="Rc_r8LwS0iZ7VTR58sMa-11" value="Img&lt;sup style=&quot;border-color: var(--border-color);&quot;&gt;q&lt;/sup&gt;&amp;nbsp;k+1&lt;br&gt;&amp;nbsp;↓&lt;br style=&quot;border-color: var(--border-color);&quot;&gt;Img&lt;sup style=&quot;border-color: var(--border-color);&quot;&gt;q&lt;/sup&gt;&amp;nbsp;k+1 &#39;" style="shape=partialRectangle;html=1;whiteSpace=wrap;connectable=0;strokeColor=inherit;overflow=hidden;fillColor=none;top=0;left=0;bottom=0;right=0;pointerEvents=1;" vertex="1" parent="Rc_r8LwS0iZ7VTR58sMa-8">
          <mxGeometry x="168" width="96" height="60" as="geometry">
            <mxRectangle width="96" height="60" as="alternateBounds" />
          </mxGeometry>
        </mxCell>
        <mxCell id="Rc_r8LwS0iZ7VTR58sMa-12" value="&lt;span style=&quot;color: rgb(0, 0, 0); font-family: Helvetica; font-size: 12px; font-style: normal; font-variant-ligatures: normal; font-variant-caps: normal; font-weight: 400; letter-spacing: normal; orphans: 2; text-align: center; text-indent: 0px; text-transform: none; widows: 2; word-spacing: 0px; -webkit-text-stroke-width: 0px; background-color: rgb(251, 251, 251); text-decoration-thickness: initial; text-decoration-style: initial; text-decoration-color: initial; float: none; display: inline !important;&quot;&gt;Img&lt;/span&gt;&lt;sup style=&quot;border-color: var(--border-color); color: rgb(0, 0, 0); font-family: Helvetica; font-style: normal; font-variant-ligatures: normal; font-variant-caps: normal; font-weight: 400; letter-spacing: normal; orphans: 2; text-align: center; text-indent: 0px; text-transform: none; widows: 2; word-spacing: 0px; -webkit-text-stroke-width: 0px; background-color: rgb(251, 251, 251); text-decoration-thickness: initial; text-decoration-style: initial; text-decoration-color: initial;&quot;&gt;q&lt;/sup&gt;&lt;span style=&quot;color: rgb(0, 0, 0); font-family: Helvetica; font-size: 12px; font-style: normal; font-variant-ligatures: normal; font-variant-caps: normal; font-weight: 400; letter-spacing: normal; orphans: 2; text-align: center; text-indent: 0px; text-transform: none; widows: 2; word-spacing: 0px; -webkit-text-stroke-width: 0px; background-color: rgb(251, 251, 251); text-decoration-thickness: initial; text-decoration-style: initial; text-decoration-color: initial; float: none; display: inline !important;&quot;&gt;&amp;nbsp;&lt;/span&gt;&lt;span style=&quot;color: rgb(0, 0, 0); font-family: Helvetica; font-size: 12px; font-style: normal; font-variant-ligatures: normal; font-variant-caps: normal; font-weight: 400; letter-spacing: normal; orphans: 2; text-align: center; text-indent: 0px; text-transform: none; widows: 2; word-spacing: 0px; -webkit-text-stroke-width: 0px; background-color: rgb(251, 251, 251); text-decoration-thickness: initial; text-decoration-style: initial; text-decoration-color: initial; float: none; display: inline !important;&quot;&gt;k+2&lt;br&gt;&amp;nbsp;↓&lt;br style=&quot;border-color: var(--border-color);&quot;&gt;Img&lt;/span&gt;&lt;sup style=&quot;border-color: var(--border-color); color: rgb(0, 0, 0); font-family: Helvetica; font-style: normal; font-variant-ligatures: normal; font-variant-caps: normal; font-weight: 400; letter-spacing: normal; orphans: 2; text-align: center; text-indent: 0px; text-transform: none; widows: 2; word-spacing: 0px; -webkit-text-stroke-width: 0px; background-color: rgb(251, 251, 251); text-decoration-thickness: initial; text-decoration-style: initial; text-decoration-color: initial;&quot;&gt;q&lt;/sup&gt;&lt;span style=&quot;color: rgb(0, 0, 0); font-family: Helvetica; font-size: 12px; font-style: normal; font-variant-ligatures: normal; font-variant-caps: normal; font-weight: 400; letter-spacing: normal; orphans: 2; text-align: center; text-indent: 0px; text-transform: none; widows: 2; word-spacing: 0px; -webkit-text-stroke-width: 0px; background-color: rgb(251, 251, 251); text-decoration-thickness: initial; text-decoration-style: initial; text-decoration-color: initial; float: none; display: inline !important;&quot;&gt;&amp;nbsp;&lt;/span&gt;&lt;span style=&quot;color: rgb(0, 0, 0); font-family: Helvetica; font-size: 12px; font-style: normal; font-variant-ligatures: normal; font-variant-caps: normal; font-weight: 400; letter-spacing: normal; orphans: 2; text-align: center; text-indent: 0px; text-transform: none; widows: 2; word-spacing: 0px; -webkit-text-stroke-width: 0px; background-color: rgb(251, 251, 251); text-decoration-thickness: initial; text-decoration-style: initial; text-decoration-color: initial; float: none; display: inline !important;&quot;&gt;k+2&amp;nbsp;&lt;/span&gt;&#39;" style="shape=partialRectangle;html=1;whiteSpace=wrap;connectable=0;strokeColor=inherit;overflow=hidden;fillColor=none;top=0;left=0;bottom=0;right=0;pointerEvents=1;" vertex="1" parent="Rc_r8LwS0iZ7VTR58sMa-8">
          <mxGeometry x="264" width="96" height="60" as="geometry">
            <mxRectangle width="96" height="60" as="alternateBounds" />
          </mxGeometry>
        </mxCell>
        <mxCell id="Rc_r8LwS0iZ7VTR58sMa-13" value="Img&lt;sup style=&quot;border-color: var(--border-color);&quot;&gt;q&lt;/sup&gt;&amp;nbsp;k+3&lt;br&gt;&amp;nbsp;↓&lt;br style=&quot;border-color: var(--border-color);&quot;&gt;Img&lt;sup style=&quot;border-color: var(--border-color);&quot;&gt;q&lt;/sup&gt;&amp;nbsp;k+3 &#39;" style="shape=partialRectangle;html=1;whiteSpace=wrap;connectable=0;strokeColor=inherit;overflow=hidden;fillColor=none;top=0;left=0;bottom=0;right=0;pointerEvents=1;" vertex="1" parent="Rc_r8LwS0iZ7VTR58sMa-8">
          <mxGeometry x="360" width="96" height="60" as="geometry">
            <mxRectangle width="96" height="60" as="alternateBounds" />
          </mxGeometry>
        </mxCell>
        <mxCell id="Rc_r8LwS0iZ7VTR58sMa-14" value="" style="shape=tableRow;horizontal=0;startSize=0;swimlaneHead=0;swimlaneBody=0;strokeColor=inherit;top=0;left=0;bottom=0;right=0;collapsible=0;dropTarget=0;fillColor=none;points=[[0,0.5],[1,0.5]];portConstraint=eastwest;" vertex="1" parent="Rc_r8LwS0iZ7VTR58sMa-1">
          <mxGeometry y="113" width="456" height="60" as="geometry" />
        </mxCell>
        <mxCell id="Rc_r8LwS0iZ7VTR58sMa-15" value="CPU" style="shape=partialRectangle;html=1;whiteSpace=wrap;connectable=0;strokeColor=inherit;overflow=hidden;fillColor=none;top=0;left=0;bottom=0;right=0;pointerEvents=1;" vertex="1" parent="Rc_r8LwS0iZ7VTR58sMa-14">
          <mxGeometry width="74" height="60" as="geometry">
            <mxRectangle width="74" height="60" as="alternateBounds" />
          </mxGeometry>
        </mxCell>
        <mxCell id="Rc_r8LwS0iZ7VTR58sMa-16" value="" style="shape=partialRectangle;html=1;whiteSpace=wrap;connectable=0;strokeColor=inherit;overflow=hidden;fillColor=none;top=0;left=0;bottom=0;right=0;pointerEvents=1;" vertex="1" parent="Rc_r8LwS0iZ7VTR58sMa-14">
          <mxGeometry x="74" width="94" height="60" as="geometry">
            <mxRectangle width="94" height="60" as="alternateBounds" />
          </mxGeometry>
        </mxCell>
        <mxCell id="Rc_r8LwS0iZ7VTR58sMa-17" value="&lt;span style=&quot;color: rgb(0, 0, 0); font-family: Helvetica; font-size: 12px; font-style: normal; font-variant-ligatures: normal; font-variant-caps: normal; font-weight: 400; letter-spacing: normal; orphans: 2; text-align: center; text-indent: 0px; text-transform: none; widows: 2; word-spacing: 0px; -webkit-text-stroke-width: 0px; background-color: rgb(251, 251, 251); text-decoration-thickness: initial; text-decoration-style: initial; text-decoration-color: initial; float: none; display: inline !important;&quot;&gt;Img&lt;/span&gt;&lt;sup style=&quot;border-color: var(--border-color); color: rgb(0, 0, 0); font-family: Helvetica; font-style: normal; font-variant-ligatures: normal; font-variant-caps: normal; font-weight: 400; letter-spacing: normal; orphans: 2; text-align: center; text-indent: 0px; text-transform: none; widows: 2; word-spacing: 0px; -webkit-text-stroke-width: 0px; background-color: rgb(251, 251, 251); text-decoration-thickness: initial; text-decoration-style: initial; text-decoration-color: initial;&quot;&gt;q&lt;/sup&gt;&lt;span style=&quot;color: rgb(0, 0, 0); font-family: Helvetica; font-size: 12px; font-style: normal; font-variant-ligatures: normal; font-variant-caps: normal; font-weight: 400; letter-spacing: normal; orphans: 2; text-align: center; text-indent: 0px; text-transform: none; widows: 2; word-spacing: 0px; -webkit-text-stroke-width: 0px; background-color: rgb(251, 251, 251); text-decoration-thickness: initial; text-decoration-style: initial; text-decoration-color: initial; float: none; display: inline !important;&quot;&gt;&lt;span&gt;&amp;nbsp;&lt;/span&gt;k&#39;&lt;br&gt;&amp;nbsp;↓&lt;br style=&quot;border-color: var(--border-color);&quot;&gt;Img&lt;sup&gt;R&lt;/sup&gt; k&lt;/span&gt;" style="shape=partialRectangle;html=1;whiteSpace=wrap;connectable=0;strokeColor=inherit;overflow=hidden;fillColor=none;top=0;left=0;bottom=0;right=0;pointerEvents=1;" vertex="1" parent="Rc_r8LwS0iZ7VTR58sMa-14">
          <mxGeometry x="168" width="96" height="60" as="geometry">
            <mxRectangle width="96" height="60" as="alternateBounds" />
          </mxGeometry>
        </mxCell>
        <mxCell id="Rc_r8LwS0iZ7VTR58sMa-18" value="Img&lt;sup style=&quot;border-color: var(--border-color);&quot;&gt;q&lt;/sup&gt;&lt;span style=&quot;border-color: var(--border-color);&quot;&gt;&lt;span style=&quot;border-color: var(--border-color);&quot;&gt;&amp;nbsp;&lt;/span&gt;k+1 &#39;&amp;nbsp;&lt;br&gt;↓&lt;br style=&quot;border-color: var(--border-color);&quot;&gt;Img&lt;sup style=&quot;border-color: var(--border-color);&quot;&gt;R&lt;/sup&gt;&amp;nbsp;k+1&lt;/span&gt;" style="shape=partialRectangle;html=1;whiteSpace=wrap;connectable=0;strokeColor=inherit;overflow=hidden;fillColor=none;top=0;left=0;bottom=0;right=0;pointerEvents=1;" vertex="1" parent="Rc_r8LwS0iZ7VTR58sMa-14">
          <mxGeometry x="264" width="96" height="60" as="geometry">
            <mxRectangle width="96" height="60" as="alternateBounds" />
          </mxGeometry>
        </mxCell>
        <mxCell id="Rc_r8LwS0iZ7VTR58sMa-19" value="Img&lt;sup style=&quot;border-color: var(--border-color);&quot;&gt;q&lt;/sup&gt;&lt;span style=&quot;border-color: var(--border-color);&quot;&gt;&lt;span style=&quot;border-color: var(--border-color);&quot;&gt;&amp;nbsp;&lt;/span&gt;k+2 &#39;&lt;br&gt;&amp;nbsp;↓&lt;br style=&quot;border-color: var(--border-color);&quot;&gt;Img&lt;sup style=&quot;border-color: var(--border-color);&quot;&gt;R&lt;/sup&gt;&amp;nbsp;k+2&lt;/span&gt;" style="shape=partialRectangle;html=1;whiteSpace=wrap;connectable=0;strokeColor=inherit;overflow=hidden;fillColor=none;top=0;left=0;bottom=0;right=0;pointerEvents=1;" vertex="1" parent="Rc_r8LwS0iZ7VTR58sMa-14">
          <mxGeometry x="360" width="96" height="60" as="geometry">
            <mxRectangle width="96" height="60" as="alternateBounds" />
          </mxGeometry>
        </mxCell>
        <mxCell id="Rc_r8LwS0iZ7VTR58sMa-20" value="" style="shape=tableRow;horizontal=0;startSize=0;swimlaneHead=0;swimlaneBody=0;strokeColor=inherit;top=0;left=0;bottom=0;right=0;collapsible=0;dropTarget=0;fillColor=none;points=[[0,0.5],[1,0.5]];portConstraint=eastwest;" vertex="1" parent="Rc_r8LwS0iZ7VTR58sMa-1">
          <mxGeometry y="173" width="456" height="60" as="geometry" />
        </mxCell>
        <mxCell id="Rc_r8LwS0iZ7VTR58sMa-21" value="FPGA" style="shape=partialRectangle;html=1;whiteSpace=wrap;connectable=0;strokeColor=inherit;overflow=hidden;fillColor=none;top=0;left=0;bottom=0;right=0;pointerEvents=1;" vertex="1" parent="Rc_r8LwS0iZ7VTR58sMa-20">
          <mxGeometry width="74" height="60" as="geometry">
            <mxRectangle width="74" height="60" as="alternateBounds" />
          </mxGeometry>
        </mxCell>
        <mxCell id="Rc_r8LwS0iZ7VTR58sMa-22" value="" style="shape=partialRectangle;html=1;whiteSpace=wrap;connectable=0;strokeColor=inherit;overflow=hidden;fillColor=none;top=0;left=0;bottom=0;right=0;pointerEvents=1;" vertex="1" parent="Rc_r8LwS0iZ7VTR58sMa-20">
          <mxGeometry x="74" width="94" height="60" as="geometry">
            <mxRectangle width="94" height="60" as="alternateBounds" />
          </mxGeometry>
        </mxCell>
        <mxCell id="Rc_r8LwS0iZ7VTR58sMa-23" value="" style="shape=partialRectangle;html=1;whiteSpace=wrap;connectable=0;strokeColor=inherit;overflow=hidden;fillColor=none;top=0;left=0;bottom=0;right=0;pointerEvents=1;" vertex="1" parent="Rc_r8LwS0iZ7VTR58sMa-20">
          <mxGeometry x="168" width="96" height="60" as="geometry">
            <mxRectangle width="96" height="60" as="alternateBounds" />
          </mxGeometry>
        </mxCell>
        <mxCell id="Rc_r8LwS0iZ7VTR58sMa-24" value="Img&lt;sup&gt;R&lt;/sup&gt; k&lt;br&gt;&amp;nbsp;↓&lt;br style=&quot;border-color: var(--border-color);&quot;&gt;Img&lt;sup&gt;S&lt;/sup&gt; k" style="shape=partialRectangle;html=1;whiteSpace=wrap;connectable=0;strokeColor=inherit;overflow=hidden;fillColor=none;top=0;left=0;bottom=0;right=0;pointerEvents=1;" vertex="1" parent="Rc_r8LwS0iZ7VTR58sMa-20">
          <mxGeometry x="264" width="96" height="60" as="geometry">
            <mxRectangle width="96" height="60" as="alternateBounds" />
          </mxGeometry>
        </mxCell>
        <mxCell id="Rc_r8LwS0iZ7VTR58sMa-25" value="Img&lt;sup style=&quot;border-color: var(--border-color);&quot;&gt;R&lt;/sup&gt;&amp;nbsp;k+1&lt;br&gt;&amp;nbsp;↓&lt;br style=&quot;border-color: var(--border-color);&quot;&gt;Img&lt;sup&gt;S&lt;/sup&gt; k+1" style="shape=partialRectangle;html=1;whiteSpace=wrap;connectable=0;strokeColor=inherit;overflow=hidden;fillColor=none;top=0;left=0;bottom=0;right=0;pointerEvents=1;" vertex="1" parent="Rc_r8LwS0iZ7VTR58sMa-20">
          <mxGeometry x="360" width="96" height="60" as="geometry">
            <mxRectangle width="96" height="60" as="alternateBounds" />
          </mxGeometry>
        </mxCell>
      </root>
    </mxGraphModel>
  </diagram>
</mxfile>
